<svg width="1600" height="1100" viewBox="0 0 1600 1100" fill="none" xmlns="http://www.w3.org/2000/svg">
  <rect width="1600" height="1100" rx="42" fill="#FAF9F6"/>
  <rect x="54" y="54" width="1492" height="992" rx="34" fill="#FFFFFF" stroke="#E5E5E5" stroke-width="3"/>

  <text x="96" y="126" fill="#2B2B2B" font-family="Inter, Arial, sans-serif" font-size="52" font-weight="800">Halo Architecture</text>
  <text x="98" y="174" fill="#4A5D23" font-family="Inter, Arial, sans-serif" font-size="26" font-weight="650">Scoped MetaMask permissions + AI verification + gasless USDC routing</text>

  <defs>
    <marker id="arrow" markerWidth="16" markerHeight="16" refX="12" refY="8" orient="auto" markerUnits="strokeWidth">
      <path d="M2 2 L14 8 L2 14 Z" fill="#4A5D23"/>
    </marker>
    <filter id="shadow" x="-20%" y="-20%" width="140%" height="140%">
      <feDropShadow dx="0" dy="12" stdDeviation="12" flood-color="#2B2B2B" flood-opacity="0.10"/>
    </filter>
  </defs>

  <style>
    .node { filter: url(#shadow); }
    .label { font-family: Inter, Arial, sans-serif; font-size: 25px; font-weight: 760; }
    .small { font-family: Inter, Arial, sans-serif; font-size: 18px; font-weight: 600; }
    .edge { stroke: #4A5D23; stroke-width: 4; fill: none; marker-end: url(#arrow); }
    .edge2 { stroke: #E07A5F; stroke-width: 4; fill: none; marker-end: url(#arrow); }
    .edge-label { font-family: Inter, Arial, sans-serif; font-size: 17px; font-weight: 720; fill: #2B2B2B; }
  </style>

  <!-- Donor path -->
  <rect class="node" x="96" y="246" width="265" height="104" rx="22" fill="#FAF9F6" stroke="#2B2B2B" stroke-width="3"/>
  <text class="label" x="128" y="292" fill="#2B2B2B">Donor</text>
  <text class="small" x="128" y="324" fill="#2B2B2B">MetaMask EOA</text>

  <rect class="node" x="462" y="238" width="306" height="120" rx="24" fill="#E07A5F" stroke="#2B2B2B" stroke-width="3"/>
  <text class="label" x="494" y="292" fill="#2B2B2B">Smart Account</text>
  <text class="small" x="494" y="326" fill="#2B2B2B">EIP-7702 via 1Shot</text>

  <rect class="node" x="858" y="232" width="330" height="132" rx="30" fill="#4A5D23" stroke="#2B2B2B" stroke-width="3"/>
  <text class="label" x="894" y="288" fill="#FAF9F6">Halo Master</text>
  <text class="label" x="894" y="320" fill="#FAF9F6">Almoner</text>
  <text class="small" x="894" y="348" fill="#FAF9F6">Scoped caveats only</text>

  <path class="edge" d="M361 298 C395 298 423 298 462 298"/>
  <text class="edge-label" x="372" y="274">EIP-7702 upgrade</text>

  <path class="edge" d="M768 298 C802 298 823 298 858 298"/>
  <text class="edge-label" x="779" y="274">Advanced Permission</text>
  <text class="edge-label" x="786" y="322">$100/mo cap</text>

  <!-- Requester path -->
  <rect class="node" x="96" y="545" width="265" height="104" rx="22" fill="#FAF9F6" stroke="#2B2B2B" stroke-width="3"/>
  <text class="label" x="128" y="590" fill="#2B2B2B">Requester UI</text>
  <text class="small" x="128" y="622" fill="#2B2B2B">Need + image</text>

  <rect class="node" x="462" y="537" width="306" height="120" rx="24" fill="#E8EDDF" stroke="#2B2B2B" stroke-width="3"/>
  <text class="label" x="494" y="591" fill="#2B2B2B">Next.js API</text>
  <text class="small" x="494" y="624" fill="#2B2B2B">Starts agent workflow</text>

  <path class="edge" d="M361 597 C395 597 423 597 462 597"/>
  <text class="edge-label" x="376" y="574">submit request</text>

  <path class="edge" d="M768 578 C822 538 852 455 931 364"/>
  <text class="edge-label" x="746" y="506">trigger workflow</text>

  <!-- Sub-agents -->
  <rect class="node" x="858" y="500" width="315" height="112" rx="26" fill="#4A5D23" stroke="#2B2B2B" stroke-width="3"/>
  <text class="label" x="894" y="552" fill="#FAF9F6">Verifier Agent</text>
  <text class="small" x="894" y="586" fill="#FAF9F6">$2 API budget</text>

  <rect class="node" x="858" y="724" width="315" height="112" rx="26" fill="#4A5D23" stroke="#2B2B2B" stroke-width="3"/>
  <text class="label" x="894" y="776" fill="#FAF9F6">Treasurer Agent</text>
  <text class="small" x="894" y="810" fill="#FAF9F6">grant amount cap</text>

  <path class="edge" d="M1004 364 C1004 407 1004 455 1004 500"/>
  <text class="edge-label" x="1026" y="438">A2A redelegation</text>

  <path class="edge" d="M1054 364 C1114 460 1118 628 1054 724"/>
  <text class="edge-label" x="1128" y="552">A2A redelegation</text>

  <!-- External services -->
  <rect class="node" x="1274" y="491" width="228" height="130" rx="26" fill="#E07A5F" stroke="#2B2B2B" stroke-width="3"/>
  <text class="label" x="1306" y="548" fill="#2B2B2B">Venice AI</text>
  <text class="small" x="1306" y="582" fill="#2B2B2B">Vision + Text</text>

  <path class="edge2" d="M1173 556 C1205 556 1235 556 1274 556"/>
  <text class="edge-label" x="1189" y="532">x402 invoice</text>
  <path class="edge2" d="M1274 588 C1218 654 1018 686 768 622"/>
  <text class="edge-label" x="1056" y="678">AI result</text>

  <rect class="node" x="1274" y="718" width="228" height="130" rx="26" fill="#E07A5F" stroke="#2B2B2B" stroke-width="3"/>
  <text class="label" x="1306" y="776" fill="#2B2B2B">1Shot Relayer</text>
  <text class="small" x="1306" y="810" fill="#2B2B2B">delegated execution</text>

  <path class="edge2" d="M1173 780 C1205 780 1235 780 1274 780"/>
  <text class="edge-label" x="1183" y="756">USDC payload</text>

  <path class="edge2" d="M1388 718 C1355 520 1138 394 768 324"/>
  <text class="edge-label" x="1212" y="450">relays to account</text>

  <path class="edge" d="M462 338 C312 392 240 460 228 545"/>
  <text class="edge-label" x="246" y="438">USDC grant transfer</text>

  <!-- DB -->
  <rect class="node" x="1018" y="920" width="286" height="92" rx="24" fill="#E8EDDF" stroke="#2B2B2B" stroke-width="3"/>
  <text class="label" x="1052" y="962" fill="#2B2B2B">Grant DB</text>
  <text class="small" x="1052" y="992" fill="#2B2B2B">webhook status</text>

  <path class="edge2" d="M1386 848 C1362 906 1325 946 1304 956"/>
  <text class="edge-label" x="1320" y="912">webhook</text>

  <path class="edge" d="M1018 962 C692 980 430 820 266 649"/>
  <text class="edge-label" x="536" y="915">realtime UI update</text>

  <!-- Footer -->
  <text x="96" y="1010" fill="#2B2B2B" font-family="Inter, Arial, sans-serif" font-size="21" font-weight="700">Step 1 live: Foundry scaffold + Halo Master Almoner caveat tests passing.</text>
  <text x="96" y="1040" fill="#4A5D23" font-family="Inter, Arial, sans-serif" font-size="19" font-weight="650">@MetaMaskDev x @1ShotAPI x @AskVenice Cook Off | #BuildInPublic</text>
</svg>

